<svg
  xmlns="http://www.w3.org/2000/svg"
  width="120mm"
  height="453.543"
  version="1.1"
  viewBox="0 0 120 120"
>
  <g
    strokeDasharray="none"
    strokeDashoffset="0"
    strokeLinecap="round"
    strokeLinejoin="miter"
    strokeMiterlimit="4"
    strokeOpacity="1"
    transform="translate(-43.204 -85.32)"
  >
    <path
      fill="transparent"
      fillOpacity="0.246"
      strokeWidth="0.065"
      d="M43.457 85.352H162.951V205.287H43.457z"
      opacity="0.99"
    ></path>
    <g transform="translate(126.124 -.651)">
      <path
        fill="white"
        fillOpacity="0.771"
        strokeWidth="0.065"
        d="M37.047 145.971a59.967 59.967 0 01-59.715 59.967 59.967 59.967 0 01-60.217-59.462 59.967 59.967 0 0159.208-60.467 59.967 59.967 0 0160.716 58.953"
        opacity="0.99"
      ></path>
      <path
        fill="#2f2f2f"
        fillOpacity="1"
        strokeWidth="0.069"
        d="M-23.267 104.546a27.466 27.466 0 00-27.118 27.695 27.466 27.466 0 0011.048 21.758 37.469 37.469 0 00-21.051 33.946 37.469 37.469 0 00.439 5.116 59.967 59.967 0 002.95 2.223 34.971 34.971 0 01-.891-7.36 34.971 34.971 0 0120.987-32.307 27.466 27.466 0 0014.098 3.858 27.466 27.466 0 0013.872-3.862 34.971 34.971 0 0120.979 31.428l.005.588a34.971 34.971 0 01-.858 7.578 59.967 59.967 0 002.922-2.09 37.469 37.469 0 00.434-5.488l-.005-.63a37.469 37.469 0 00-21.011-33.032 27.466 27.466 0 01-.069.047A27.466 27.466 0 004.545 132.01l-.003-.463a27.466 27.466 0 00-27.809-27zm.032 2.497a24.969 24.969 0 0125.28 24.546l.003.42a24.969 24.969 0 01-24.863 24.969 24.969 24.969 0 01-25.073-24.759 24.969 24.969 0 0124.653-25.176z"
        opacity="0.99"
      ></path>
    </g>
  </g>
</svg>