<svg width="32" height="32" viewBox="0 0 32 32" fill="none" xmlns="http://www.w3.org/2000/svg">
<g id="vuesax/linear/archive-book">
<g id="archive-book">
<path id="Vector" d="M28 9.33332V22.6667C28 26.6667 26 29.3333 21.3333 29.3333H10.6667C6 29.3333 4 26.6667 4 22.6667V9.33332C4 5.33332 6 2.66666 10.6667 2.66666H21.3333C26 2.66666 28 5.33332 28 9.33332Z" stroke="#E7D8B0" stroke-width="1.5" stroke-miterlimit="10" stroke-linecap="round" stroke-linejoin="round"/>
<path id="Vector_2" d="M20.6666 2.66666V13.1466C20.6666 13.7333 19.9733 14.0266 19.5466 13.64L16.4533 10.7867C16.2 10.5467 15.7999 10.5467 15.5466 10.7867L12.4533 13.64C12.0267 14.0266 11.3333 13.7333 11.3333 13.1466V2.66666H20.6666Z" stroke="#E7D8B0" stroke-width="1.5" stroke-miterlimit="10" stroke-linecap="round" stroke-linejoin="round"/>
<path id="Vector_3" d="M17.6667 18.6667H23.3334" stroke="#E7D8B0" stroke-width="1.5" stroke-miterlimit="10" stroke-linecap="round" stroke-linejoin="round"/>
<path id="Vector_4" d="M12 24H23.3333" stroke="#E7D8B0" stroke-width="1.5" stroke-miterlimit="10" stroke-linecap="round" stroke-linejoin="round"/>
</g>
</g>
</svg>
