<svg width="32" height="32" viewBox="0 0 32 32" fill="none" xmlns="http://www.w3.org/2000/svg">
<g id="gears 1" clip-path="url(#clip0_95_287)">
<g id="Group">
<path id="Vector" d="M11.2266 1.39453L10.2012 3.68353C9.99763 3.65953 9.79512 3.64578 9.59375 3.64453C8.93269 3.64041 8.29019 3.75753 7.68937 3.97453L6.23625 1.93947L3.48437 3.94922L4.98831 6.05278C4.53769 6.70353 4.21956 7.45903 4.08206 8.28716L1.41206 8.58009L1.74612 11.9707L4.58787 11.6582C4.9055 12.2957 5.34275 12.869 5.875 13.3438L4.66212 16.0548L7.74806 17.4357L8.96681 14.7129C9.69531 14.7905 10.4093 14.7209 11.0762 14.5254L12.8339 16.9335L14.8164 15.4844L15.5449 16.7442C14.6259 17.4461 13.8046 18.2687 13.1015 19.1875L10.0253 17.416L8.41788 20.336L11.4257 22.082C10.9839 23.1404 10.6778 24.268 10.5293 25.4453H7.03125V28.8028H10.545C10.6488 29.5561 10.8182 30.2873 11.0469 30.994H21.6289C20.1342 30.3217 19.0938 28.8198 19.0938 27.0742C19.0938 24.7015 21.0159 22.7773 23.3888 22.7773C25.7614 22.7773 27.6856 24.7015 27.6856 27.0742C27.6856 28.8198 26.6438 30.3217 25.1484 30.9941H30.8672V12.5234L30.1367 12.123L28.4121 15.125C27.3595 14.6747 26.2366 14.3603 25.0625 14.205V10.7343H21.705V14.2012C20.5611 14.3498 19.4656 14.6502 18.4356 15.0781L16.7402 12.1231L14.4902 13.3887L13.9121 12.5781C14.3546 12.0017 14.689 11.3325 14.8809 10.5956L17.6582 10.2929L17.3243 6.90228L14.6837 7.16209C14.3762 6.37347 13.8932 5.66503 13.2735 5.09372L14.3125 2.77534L11.2266 1.39453ZM9.51756 6.66016C10.9738 6.64516 12.2013 7.77434 12.2911 9.24409C12.3836 10.7613 11.2283 12.0656 9.71106 12.1582C8.19369 12.2508 6.8895 11.0973 6.79694 9.58003C6.70444 8.06291 7.85775 6.75866 9.37506 6.66603C9.42256 6.66316 9.47069 6.66066 9.51756 6.66016Z" fill="#301005"/>
</g>
</g>
<defs>
<clipPath id="clip0_95_287">
<rect width="32" height="32" fill="white"/>
</clipPath>
</defs>
</svg>
