<svg width="32" height="32" viewBox="0 0 32 32" fill="none" xmlns="http://www.w3.org/2000/svg">
<g id="vuesax/linear/glass">
<g id="glass">
<path id="Vector" d="M10.88 29.3333C5.3067 29.3333 4.18669 25.96 6.00003 21.8533L11.6667 8.98666H11.2667C10.4 8.98666 9.60003 8.63999 9.0267 8.06666C8.44003 7.49332 8.09336 6.69332 8.09336 5.82666C8.09336 4.09332 9.50669 2.66666 11.2534 2.66666H20.7334C21.6134 2.66666 22.4 3.02666 22.9734 3.59999C23.72 4.34666 24.0934 5.43999 23.8134 6.59999C23.4534 8.03999 22.0667 8.98666 20.5867 8.98666H20.3734L26 21.8667C27.8 25.9733 26.6267 29.3333 21.1067 29.3333H10.88Z" stroke="#E7D8B0" stroke-width="1.5" stroke-linecap="round" stroke-linejoin="round"/>
<path id="Vector_2" d="M7.91998 17.4933C7.91998 17.4933 12 17.3333 16 18.6666C20 20 23.7733 17.48 23.7733 17.48" stroke="#E7D8B0" stroke-width="1.5" stroke-linecap="round" stroke-linejoin="round"/>
</g>
</g>
</svg>
