<svg width="38" height="39" viewBox="0 0 38 39" fill="none" xmlns="http://www.w3.org/2000/svg">
<g id="vuesax/linear/house" filter="url(#filter0_d_8_20)">
<g id="house">
<path id="Vector" d="M5.66666 29.3333H32.3333" stroke="#E7D8B0" stroke-width="1.5" stroke-miterlimit="10" stroke-linecap="round" stroke-linejoin="round"/>
<path id="Vector_2" d="M6.93228 29.3337L6.99895 13.2936C6.99895 12.4803 7.38561 11.707 8.02561 11.2004L17.3589 3.93369C18.3189 3.18702 19.6656 3.18702 20.6389 3.93369L29.9723 11.187C30.6256 11.6937 30.9989 12.467 30.9989 13.2936V29.3337" stroke="#E7D8B0" stroke-width="1.5" stroke-miterlimit="10" stroke-linejoin="round"/>
<path id="Vector_3" d="M20.3333 22.6667H17.6667C16.56 22.6667 15.6667 23.56 15.6667 24.6667V29.3333H22.3333V24.6667C22.3333 23.56 21.44 22.6667 20.3333 22.6667Z" stroke="#E7D8B0" stroke-width="1.5" stroke-miterlimit="10" stroke-linejoin="round"/>
<path id="Vector_4" d="M15.6667 18.3333H13C12.2667 18.3333 11.6667 17.7333 11.6667 17V15C11.6667 14.2667 12.2667 13.6667 13 13.6667H15.6667C16.4 13.6667 17 14.2667 17 15V17C17 17.7333 16.4 18.3333 15.6667 18.3333Z" stroke="#E7D8B0" stroke-width="1.5" stroke-miterlimit="10" stroke-linejoin="round"/>
<path id="Vector_5" d="M25 18.3333H22.3333C21.6 18.3333 21 17.7333 21 17V15C21 14.2667 21.6 13.6667 22.3333 13.6667H25C25.7333 13.6667 26.3333 14.2667 26.3333 15V17C26.3333 17.7333 25.7333 18.3333 25 18.3333Z" stroke="#E7D8B0" stroke-width="1.5" stroke-miterlimit="10" stroke-linejoin="round"/>
<path id="Vector_6" d="M28.3338 9.33334L28.2938 5.33334H22.4271" stroke="#E7D8B0" stroke-width="1.5" stroke-miterlimit="10" stroke-linecap="round" stroke-linejoin="round"/>
</g>
</g>
<defs>
<filter id="filter0_d_8_20" x="0.916656" y="2.62369" width="36.1667" height="35.4597" filterUnits="userSpaceOnUse" color-interpolation-filters="sRGB">
<feFlood flood-opacity="0" result="BackgroundImageFix"/>
<feColorMatrix in="SourceAlpha" type="matrix" values="0 0 0 0 0 0 0 0 0 0 0 0 0 0 0 0 0 0 127 0" result="hardAlpha"/>
<feOffset dy="4"/>
<feGaussianBlur stdDeviation="2"/>
<feComposite in2="hardAlpha" operator="out"/>
<feColorMatrix type="matrix" values="0 0 0 0 0 0 0 0 0 0 0 0 0 0 0 0 0 0 0.25 0"/>
<feBlend mode="normal" in2="BackgroundImageFix" result="effect1_dropShadow_8_20"/>
<feBlend mode="normal" in="SourceGraphic" in2="effect1_dropShadow_8_20" result="shape"/>
</filter>
</defs>
</svg>
