<svg width="32" height="32" viewBox="0 0 32 32" fill="none" xmlns="http://www.w3.org/2000/svg">
<g id="vuesax/linear/people">
<g id="people">
<g id="Group">
<path id="Vector" d="M24 9.54666C23.92 9.53333 23.8267 9.53333 23.7467 9.54666C21.9067 9.47999 20.44 7.97333 20.44 6.10666C20.44 4.19999 21.9733 2.66666 23.88 2.66666C25.7867 2.66666 27.32 4.21333 27.32 6.10666C27.3067 7.97333 25.84 9.47999 24 9.54666Z" stroke="#E7D8B0" stroke-width="1.5" stroke-linecap="round" stroke-linejoin="round"/>
<path id="Vector_2" d="M22.6271 19.2535C24.4538 19.5602 26.4671 19.2402 27.8805 18.2935C29.7605 17.0402 29.7605 14.9869 27.8805 13.7335C26.4538 12.7869 24.4138 12.4669 22.5871 12.7869" stroke="#E7D8B0" stroke-width="1.5" stroke-linecap="round" stroke-linejoin="round"/>
</g>
<g id="Group_2">
<path id="Vector_3" d="M7.96057 9.54666C8.04057 9.53333 8.1339 9.53333 8.2139 9.54666C10.0539 9.47999 11.5206 7.97333 11.5206 6.10666C11.5206 4.19999 9.98723 2.66666 8.08057 2.66666C6.1739 2.66666 4.64056 4.21333 4.64056 6.10666C4.6539 7.97333 6.12057 9.47999 7.96057 9.54666Z" stroke="#E7D8B0" stroke-width="1.5" stroke-linecap="round" stroke-linejoin="round"/>
<path id="Vector_4" d="M9.33389 19.2534C7.50723 19.56 5.4939 19.24 4.08056 18.2934C2.20056 17.04 2.20056 14.9867 4.08056 13.7334C5.50723 12.7867 7.54723 12.4667 9.37389 12.7867" stroke="#E7D8B0" stroke-width="1.5" stroke-linecap="round" stroke-linejoin="round"/>
</g>
<g id="Group_3">
<path id="Vector_5" d="M16.0001 19.5063C15.9201 19.493 15.8268 19.493 15.7468 19.5063C13.9068 19.4397 12.4401 17.933 12.4401 16.0663C12.4401 14.1596 13.9734 12.6263 15.8801 12.6263C17.7868 12.6263 19.3201 14.173 19.3201 16.0663C19.3068 17.933 17.8401 19.453 16.0001 19.5063Z" stroke="#E7D8B0" stroke-width="1.5" stroke-linecap="round" stroke-linejoin="round"/>
<path id="Vector_6" d="M12.1196 23.7063C10.2396 24.9597 10.2396 27.013 12.1196 28.2663C14.253 29.693 17.7463 29.693 19.8796 28.2663C21.7596 27.013 21.7596 24.9597 19.8796 23.7063C17.7596 22.293 14.253 22.293 12.1196 23.7063Z" stroke="#E7D8B0" stroke-width="1.5" stroke-linecap="round" stroke-linejoin="round"/>
</g>
</g>
</g>
</svg>
