<svg width="34" height="39" viewBox="0 0 34 39" fill="none" xmlns="http://www.w3.org/2000/svg">
<g id="stabbed-note 1" clip-path="url(#clip0_95_293)" filter="url(#filter0_d_95_293)">
<g id="Group">
<path id="Vector" d="M28.3309 1.06982C28.2968 1.52182 28.4321 2.0372 28.7032 2.48307C28.9744 2.92889 29.3699 3.28601 29.7869 3.4637C30.3903 2.76332 29.4442 1.09032 28.5311 1.0497C28.463 1.04532 28.3902 1.05826 28.3309 1.06982ZM21.3592 1.59357L20.5932 3.10064L24.4069 9.37101L26.0086 9.23808L26.8633 7.87701L26.2969 6.94576L24.5881 7.98501L22.2174 4.08682L21.925 3.60626L23.6337 2.56701L23.0496 1.60651L21.3592 1.59357ZM27.2328 1.69482L23.4707 3.98295L24.9647 6.43939L28.7268 4.15126C28.3302 3.86351 27.9971 3.48657 27.7422 3.06751C27.4873 2.64851 27.3059 2.17939 27.2328 1.69482ZM19.4197 2.92676L9.31674 3.09051C9.96693 4.59276 9.78499 6.04033 9.04249 7.19351C7.87637 6.3037 6.27118 6.23264 5.07956 6.0862C4.20081 13.8254 4.69081 20.2091 4.68762 27.4705C4.68737 28.0623 4.61531 28.9155 4.98924 29.5297C5.10718 29.7235 5.26237 29.9002 5.49731 30.0511C6.60406 29.6632 8.08512 29.2736 8.92668 28.659C8.49224 28.6074 8.00449 28.7185 7.60556 28.7186C7.07693 28.7161 6.40906 28.3368 6.05881 27.5001C5.87637 27.0643 5.64406 26.3631 6.04749 25.6831C6.22487 25.3841 6.63393 25.0393 6.93874 25.0376C12.8544 25.0691 18.9007 25.0176 24.4117 25.0473C24.0666 20.2441 23.7859 15.4163 24.0661 10.528L23.807 10.5495L22.8794 9.0242L18.7002 11.566L19.124 12.2283L18.1764 12.8345L14.4828 7.06133L15.4303 6.45507L15.9375 7.24789L20.2162 4.64558L19.4694 3.41745L19.3065 3.14964L19.4197 2.92676ZM8.15906 3.2007C7.19868 3.71401 6.34018 4.30707 5.59718 4.99489C6.60762 5.08833 7.70593 5.18632 8.63718 5.61676C8.83337 4.75201 8.43424 3.93576 8.15906 3.2007ZM20.8008 5.60658L16.6355 8.13995L17.0902 8.88758L19.173 7.62101L19.7574 8.58208L17.6748 9.84876L18.1296 10.5965L22.2948 8.06314L20.8008 5.60658ZM12.5881 8.51739L12.6159 9.64189C10.7083 9.6577 8.95218 9.7687 6.99012 9.77376V8.64876C8.85617 8.60733 10.7222 8.56351 12.5881 8.51732V8.51739ZM21.6496 13.4536L21.6646 14.5784L7.01793 14.7748L7.00281 13.6501L21.6496 13.4536ZM21.6544 15.9964L21.6799 17.1209L13.9516 17.2965L13.9259 16.1719L21.6544 15.9964ZM6.95581 16.19H12.6184V17.3148H6.95581V16.19ZM21.6305 18.2673L21.6559 19.3918L17.771 19.4796L17.7456 18.355L21.6305 18.2673ZM16.4001 18.3582L16.4212 19.483L7.02749 19.6585L7.00643 18.5338L16.4001 18.3582ZM21.7717 21.6586L21.7969 22.7833L13.9439 22.9588L13.9188 21.8343L21.7717 21.6586ZM9.50156 26.083C10.1297 26.6618 10.6219 27.462 10.4439 28.3778C10.3143 29.0455 9.79256 29.4782 9.20556 29.822C8.61856 30.1657 7.90712 30.4386 7.17356 30.6916C6.919 30.7793 6.66404 30.8658 6.40868 30.9512L25.2454 30.4717C25.7311 30.4436 26.1615 30.118 26.4787 29.6338C26.7964 29.1492 26.9461 28.5203 26.9097 28.1816C26.8732 27.8429 26.6061 27.2643 26.2239 26.8391C25.8416 26.4138 25.3772 26.1626 25.0348 26.1755L25.0224 26.176L9.50156 26.083ZM7.01499 26.2571C6.94812 26.3698 6.98587 26.8018 7.09643 27.0658C7.32893 27.6213 7.47318 27.5931 7.61093 27.5938C8.16574 27.7251 8.69512 27.6106 9.22656 27.5297C9.09824 27.272 8.89637 26.9857 8.58387 26.7726C8.32637 26.5971 7.29168 25.7955 7.01499 26.2571Z" fill="#E7D8B0"/>
</g>
</g>
<defs>
<filter id="filter0_d_95_293" x="-4" y="0" width="40" height="40" filterUnits="userSpaceOnUse" color-interpolation-filters="sRGB">
<feFlood flood-opacity="0" result="BackgroundImageFix"/>
<feColorMatrix in="SourceAlpha" type="matrix" values="0 0 0 0 0 0 0 0 0 0 0 0 0 0 0 0 0 0 127 0" result="hardAlpha"/>
<feOffset dy="4"/>
<feGaussianBlur stdDeviation="2"/>
<feComposite in2="hardAlpha" operator="out"/>
<feColorMatrix type="matrix" values="0 0 0 0 0.870588 0 0 0 0 0.792157 0 0 0 0 0.615686 0 0 0 0.6 0"/>
<feBlend mode="normal" in2="BackgroundImageFix" result="effect1_dropShadow_95_293"/>
<feBlend mode="normal" in="SourceGraphic" in2="effect1_dropShadow_95_293" result="shape"/>
</filter>
<clipPath id="clip0_95_293">
<rect width="32" height="32" fill="white"/>
</clipPath>
</defs>
</svg>
