<svg width="32" height="32" viewBox="0 0 32 32" fill="none" xmlns="http://www.w3.org/2000/svg">
<g id="wizard-face 1" clip-path="url(#clip0_95_299)">
<g id="Group">
<path id="Vector" d="M16.0187 1.21375C12.75 3.575 11.075 6.9375 9.53125 10.0437C12.2437 8.50625 15.8875 7.9875 17.4625 8.25C13.475 8.9125 10.7125 9.8625 8.4375 12.2687C8.3 12.55 8.18125 12.7875 8.0375 13.0875C15.25 11.35 16.4375 11.4 23.7187 13.0437C23 9.91249 21.4375 7.9125 19 4.11437C21.6187 7.4 26.7562 13.0062 26.5187 11.9125C25.0875 5.35812 20.2625 1.46812 16.0187 1.21375ZM5.5 14.4562C3.5625 14.9187 2.13125 15.55 1.575 16.125C1.63125 16.8562 1.99375 17.5062 2.66875 18.125C3.40625 18.8 4.51875 19.4 5.875 19.8812C6.04312 19.9375 6.21187 19.9937 6.38125 20.05C5.85625 19.3625 5.68125 18.4062 5.56875 17.4812C5.56875 16.5187 5.38125 15.3875 5.5 14.4562ZM26.5 14.4562C26.6375 15.4687 26.5375 16.6125 26.4312 17.4812C26.3187 18.4062 26.1437 19.3625 25.6187 20.05C26.8812 19.6125 28.4062 18.95 29.3312 18.125C30.0062 17.5062 30.3687 16.8562 30.425 16.125C29.8687 15.55 28.4437 14.9187 26.5 14.4562ZM9.35 14.475L8.9125 15.35H15.0875L14.65 14.475H9.35ZM17.35 14.475L16.9125 15.35H23.0875L22.65 14.475H17.35ZM7.4375 15.0625C7.14375 15.1437 6.85 15.225 6.5625 15.3187C6.625 16.5625 6.6 18.2937 7.2875 19.35H7.4375V15.0625ZM24.5625 15.0625V19.35H24.7125C25.3687 18.0562 25.4187 16.7375 25.4375 15.3187C25.15 15.225 24.8562 15.1437 24.5625 15.0625ZM8.56875 16.475C8.55 17.65 8.69375 18.9437 8.95625 19.9562C10.275 19.075 11.575 18.35 13 18.35C13.2 18.35 13.4 18.3625 13.5875 18.375L13.9125 17.3937C13.5625 17.75 13.1062 17.95 12.4625 17.925C10.8875 17.875 10.3437 17.2312 10.1187 16.475H8.56875ZM15.4062 16.475L14.6312 18.8L16 20.5125L17.3687 18.8L16.5937 16.475H15.4062ZM21.8812 16.475C21.6562 17.2312 21.1125 17.875 19.5375 17.925C18.8937 17.95 18.4375 17.75 18.0875 17.3937L18.4125 18.375C18.6062 18.3562 18.8062 18.35 19 18.35C20.425 18.35 21.725 19.075 23.0437 19.9562C23.3187 18.7 23.4687 17.6062 23.4312 16.475H21.8812ZM13 19.475C11.75 19.475 10.3125 20.3812 8.69375 21.5C7.49375 22.3312 6.2 23.2562 4.7375 23.9C6.525 24.2812 8.85 24.2 10.875 23.7375C12.2062 23.4375 13.4062 22.9812 14.2312 22.4562C14.7625 22.1125 15.1125 21.7625 15.2937 21.4312L13.7812 19.5375C13.55 19.5 13.2875 19.475 13 19.475ZM19 19.475C18.7125 19.475 18.45 19.5 18.2187 19.5375L16.7062 21.4312C16.8875 21.7625 17.2375 22.1125 17.7687 22.4562C18.5937 22.9812 19.7937 23.4375 21.125 23.7375C23.15 24.2 25.475 24.2812 27.2625 23.9C25.8 23.2562 24.5062 22.3312 23.3062 21.5C21.6875 20.3812 20.25 19.475 19 19.475ZM16 22.3937C15.7125 22.75 15.3375 23.0687 14.9125 23.35H17.0875C16.6625 23.0687 16.2875 22.75 16 22.3937ZM12.4562 24.475C12.025 24.6125 11.5812 24.7312 11.125 24.8375C10.5312 24.975 9.925 25.0812 9.31875 25.1562C9.7 26.3812 10.2 27.625 10.7562 28.7937L10.7625 28.8062C11.0312 28.3875 11.35 27.9875 11.6062 27.5687C11.4562 28.4375 11.4 29.3125 11.4625 30.1812C11.5687 30.3875 11.6812 30.5875 11.7937 30.7875H20.2062C20.4312 30.3937 20.6437 29.9937 20.85 29.5875C21.1875 28.2187 21.0937 26.9125 21.1875 25.575C21.3812 26.2937 21.5687 27.0125 21.7187 27.7437C22.0812 26.8937 22.4125 26.0187 22.6812 25.1562C22.075 25.0812 21.4687 24.975 20.875 24.8375C20.4187 24.7312 19.975 24.6125 19.5437 24.475H12.4562Z" fill="#E7D8B0"/>
</g>
</g>
<defs>
<clipPath id="clip0_95_299">
<rect width="32" height="32" fill="white"/>
</clipPath>
</defs>
</svg>
